<svg viewBox="-2 -1 28 16" xmlns="http://www.w3.org/2000/svg">
<rect x="-2" y="-1" width="28" height="16" rx="3" fill="#1B365D"/>
<rect x="8" y="0" width="1" height="1" fill="rgb(27,94,32)"/>
<rect x="9" y="0" width="1" height="1" fill="rgb(27,94,32)"/>
<rect x="10" y="0" width="1" height="1" fill="rgb(27,94,32)"/>
<rect x="11" y="0" width="1" height="1" fill="rgb(27,94,32)"/>
<rect x="12" y="0" width="1" height="1" fill="rgb(27,94,32)"/>
<rect x="7" y="1" width="1" height="1" fill="rgb(27,94,32)"/>
<rect x="8" y="1" width="1" height="1" fill="rgb(46,125,50)"/>
<rect x="9" y="1" width="1" height="1" fill="rgb(46,125,50)"/>
<rect x="10" y="1" width="1" height="1" fill="rgb(46,125,50)"/>
<rect x="11" y="1" width="1" height="1" fill="rgb(46,125,50)"/>
<rect x="12" y="1" width="1" height="1" fill="rgb(46,125,50)"/>
<rect x="13" y="1" width="1" height="1" fill="rgb(27,94,32)"/>
<rect x="6" y="2" width="1" height="1" fill="rgb(27,94,32)"/>
<rect x="7" y="2" width="1" height="1" fill="rgb(46,125,50)"/>
<rect x="8" y="2" width="1" height="1" fill="rgb(76,175,80)"/>
<rect x="9" y="2" width="1" height="1" fill="rgb(129,199,132)"/>
<rect x="10" y="2" width="1" height="1" fill="rgb(129,199,132)"/>
<rect x="11" y="2" width="1" height="1" fill="rgb(129,199,132)"/>
<rect x="12" y="2" width="1" height="1" fill="rgb(76,175,80)"/>
<rect x="13" y="2" width="1" height="1" fill="rgb(46,125,50)"/>
<rect x="14" y="2" width="1" height="1" fill="rgb(27,94,32)"/>
<rect x="5" y="3" width="1" height="1" fill="rgb(27,94,32)"/>
<rect x="6" y="3" width="1" height="1" fill="rgb(46,125,50)"/>
<rect x="7" y="3" width="1" height="1" fill="rgb(76,175,80)"/>
<rect x="9" y="3" width="1" height="1" fill="rgb(255,255,255)"/>
<rect x="10" y="3" width="1" height="1" fill="rgb(33,33,33)"/>
<rect x="11" y="3" width="1" height="1" fill="rgb(255,255,255)"/>
<rect x="12" y="3" width="1" height="1" fill="rgb(33,33,33)"/>
<rect x="14" y="3" width="1" height="1" fill="rgb(76,175,80)"/>
<rect x="15" y="3" width="1" height="1" fill="rgb(27,94,32)"/>
<rect x="5" y="4" width="1" height="1" fill="rgb(27,94,32)"/>
<rect x="6" y="4" width="1" height="1" fill="rgb(46,125,50)"/>
<rect x="7" y="4" width="1" height="1" fill="rgb(76,175,80)"/>
<rect x="8" y="4" width="1" height="1" fill="rgb(255,138,128)"/>
<rect x="15" y="4" width="1" height="1" fill="rgb(255,138,128)"/>
<rect x="16" y="4" width="1" height="1" fill="rgb(76,175,80)"/>
<rect x="17" y="4" width="1" height="1" fill="rgb(27,94,32)"/>
<rect x="6" y="5" width="1" height="1" fill="rgb(27,94,32)"/>
<rect x="7" y="5" width="1" height="1" fill="rgb(46,125,50)"/>
<rect x="8" y="5" width="1" height="1" fill="rgb(76,175,80)"/>
<rect x="9" y="5" width="1" height="1" fill="rgb(211,47,47)"/>
<rect x="10" y="5" width="1" height="1" fill="rgb(211,47,47)"/>
<rect x="11" y="5" width="1" height="1" fill="rgb(211,47,47)"/>
<rect x="12" y="5" width="1" height="1" fill="rgb(211,47,47)"/>
<rect x="13" y="5" width="1" height="1" fill="rgb(211,47,47)"/>
<rect x="14" y="5" width="1" height="1" fill="rgb(76,175,80)"/>
<rect x="15" y="5" width="1" height="1" fill="rgb(46,125,50)"/>
<rect x="16" y="5" width="1" height="1" fill="rgb(27,94,32)"/>
<rect x="7" y="6" width="1" height="1" fill="rgb(27,94,32)"/>
<rect x="8" y="6" width="1" height="1" fill="rgb(27,94,32)"/>
<rect x="9" y="6" width="1" height="1" fill="rgb(27,94,32)"/>
<rect x="10" y="6" width="1" height="1" fill="rgb(46,125,50)"/>
<rect x="11" y="6" width="1" height="1" fill="rgb(46,125,50)"/>
<rect x="12" y="6" width="1" height="1" fill="rgb(46,125,50)"/>
<rect x="13" y="6" width="1" height="1" fill="rgb(27,94,32)"/>
<rect x="14" y="6" width="1" height="1" fill="rgb(27,94,32)"/>
<rect x="8" y="7" width="1" height="1" fill="rgb(27,94,32)"/>
<rect x="9" y="7" width="1" height="1" fill="rgb(255,245,157)"/>
<rect x="10" y="7" width="1" height="1" fill="rgb(255,249,196)"/>
<rect x="11" y="7" width="1" height="1" fill="rgb(255,249,196)"/>
<rect x="12" y="7" width="1" height="1" fill="rgb(255,245,157)"/>
<rect x="13" y="7" width="1" height="1" fill="rgb(27,94,32)"/>
<rect x="7" y="8" width="1" height="1" fill="rgb(27,94,32)"/>
<rect x="8" y="8" width="1" height="1" fill="rgb(255,245,157)"/>
<rect x="9" y="8" width="1" height="1" fill="rgb(255,249,196)"/>
<rect x="10" y="8" width="1" height="1" fill="rgb(255,249,196)"/>
<rect x="11" y="8" width="1" height="1" fill="rgb(255,249,196)"/>
<rect x="12" y="8" width="1" height="1" fill="rgb(255,249,196)"/>
<rect x="13" y="8" width="1" height="1" fill="rgb(255,245,157)"/>
<rect x="14" y="8" width="1" height="1" fill="rgb(27,94,32)"/>
<rect x="6" y="9" width="1" height="1" fill="rgb(27,94,32)"/>
<rect x="7" y="9" width="1" height="1" fill="rgb(255,245,157)"/>
<rect x="8" y="9" width="1" height="1" fill="rgb(255,249,196)"/>
<rect x="9" y="9" width="1" height="1" fill="rgb(255,249,196)"/>
<rect x="10" y="9" width="1" height="1" fill="rgb(255,249,196)"/>
<rect x="11" y="9" width="1" height="1" fill="rgb(255,249,196)"/>
<rect x="12" y="9" width="1" height="1" fill="rgb(255,249,196)"/>
<rect x="13" y="9" width="1" height="1" fill="rgb(255,249,196)"/>
<rect x="14" y="9" width="1" height="1" fill="rgb(255,245,157)"/>
<rect x="15" y="9" width="1" height="1" fill="rgb(27,94,32)"/>
<rect x="7" y="10" width="1" height="1" fill="rgb(27,94,32)"/>
<rect x="8" y="10" width="1" height="1" fill="rgb(255,245,157)"/>
<rect x="9" y="10" width="1" height="1" fill="rgb(255,249,196)"/>
<rect x="10" y="10" width="1" height="1" fill="rgb(255,249,196)"/>
<rect x="11" y="10" width="1" height="1" fill="rgb(255,249,196)"/>
<rect x="12" y="10" width="1" height="1" fill="rgb(255,249,196)"/>
<rect x="13" y="10" width="1" height="1" fill="rgb(255,245,157)"/>
<rect x="14" y="10" width="1" height="1" fill="rgb(27,94,32)"/>
<rect x="8" y="11" width="1" height="1" fill="rgb(27,94,32)"/>
<rect x="9" y="11" width="1" height="1" fill="rgb(255,245,157)"/>
<rect x="10" y="11" width="1" height="1" fill="rgb(255,249,196)"/>
<rect x="11" y="11" width="1" height="1" fill="rgb(255,249,196)"/>
<rect x="12" y="11" width="1" height="1" fill="rgb(255,245,157)"/>
<rect x="13" y="11" width="1" height="1" fill="rgb(27,94,32)"/>
<rect x="7" y="12" width="1" height="1" fill="rgb(27,94,32)"/>
<rect x="8" y="12" width="1" height="1" fill="rgb(121,85,72)"/>
<rect x="13" y="12" width="1" height="1" fill="rgb(121,85,72)"/>
<rect x="14" y="12" width="1" height="1" fill="rgb(27,94,32)"/>
<rect x="6" y="13" width="1" height="1" fill="rgb(93,64,55)"/>
<rect x="7" y="13" width="1" height="1" fill="rgb(93,64,55)"/>
<rect x="8" y="13" width="1" height="1" fill="rgb(93,64,55)"/>
<rect x="13" y="13" width="1" height="1" fill="rgb(93,64,55)"/>
<rect x="14" y="13" width="1" height="1" fill="rgb(93,64,55)"/>
<rect x="15" y="13" width="1" height="1" fill="rgb(93,64,55)"/>
</svg>